<svg version="1.1" xmlns="http://www.w3.org/2000/svg" xmlns:xlink="http://www.w3.org/1999/xlink" width="803" height="883"><defs></defs><g><g transform="translate(-214,-70) scale(1,1)"><rect fill="#C0C0C0" stroke="none" x="775" y="119" width="231" height="167" opacity="0.2"></rect></g><g transform="translate(-214,-70) scale(1,1)"><rect fill="#ffffff" stroke="none" x="768" y="112" width="231" height="167"></rect></g><g transform="translate(-214,-70) scale(1,1)"><path fill="none" stroke="#000000" d="M 768 112 L 999 112 L 999 279 L 768 279 L 768 112 Z Z" stroke-miterlimit="10"></path></g><g transform="translate(-214,-70) scale(1,1)"><path fill="none" stroke="#000000" d="M 768 137 L 999 137" stroke-miterlimit="10"></path></g><g transform="translate(-214,-70) scale(1,1)"><path fill="none" stroke="#000000" d="M 768 160 L 999 160" stroke-miterlimit="10"></path></g><g transform="translate(-214,-70) scale(1,1)"><g><path fill="none" stroke="none"></path><text fill="#000000" stroke="none" font-family="Arial" font-size="13px" font-style="normal" font-weight="bold" text-decoration="none" x="861" y="131.5">Student</text></g></g><g transform="translate(-214,-70) scale(1,1)"><g><path fill="none" stroke="none"></path><text fill="#000000" stroke="none" font-family="Arial" font-size="13px" font-style="normal" font-weight="normal" text-decoration="none" x="773" y="154.5">-enrollment</text></g></g><g transform="translate(-214,-70) scale(1,1)"><rect fill="#C0C0C0" stroke="none" x="263" y="87" width="231" height="223" opacity="0.2"></rect></g><g transform="translate(-214,-70) scale(1,1)"><rect fill="#ffffff" stroke="none" x="256" y="80" width="231" height="223"></rect></g><g transform="translate(-214,-70) scale(1,1)"><path fill="none" stroke="#000000" d="M 256 80 L 487 80 L 487 303 L 256 303 L 256 80 Z Z" stroke-miterlimit="10"></path></g><g transform="translate(-214,-70) scale(1,1)"><path fill="none" stroke="#000000" d="M 256 105 L 487 105" stroke-miterlimit="10"></path></g><g transform="translate(-214,-70) scale(1,1)"><path fill="none" stroke="#000000" d="M 256 115 L 487 115" stroke-miterlimit="10"></path></g><g transform="translate(-214,-70) scale(1,1)"><g><path fill="none" stroke="none"></path><text fill="#000000" stroke="none" font-family="Arial" font-size="13px" font-style="normal" font-weight="bold" text-decoration="none" x="318" y="99.5">EnrollmentSystem</text></g></g><g transform="translate(-214,-70) scale(1,1)"><rect fill="#C0C0C0" stroke="none" x="767" y="399" width="247" height="239" opacity="0.2"></rect></g><g transform="translate(-214,-70) scale(1,1)"><rect fill="#ffffff" stroke="none" x="760" y="392" width="247" height="239"></rect></g><g transform="translate(-214,-70) scale(1,1)"><path fill="none" stroke="#000000" d="M 760 392 L 1007 392 L 1007 631 L 760 631 L 760 392 Z Z" stroke-miterlimit="10"></path></g><g transform="translate(-214,-70) scale(1,1)"><path fill="none" stroke="#000000" d="M 760 417 L 1007 417" stroke-miterlimit="10"></path></g><g transform="translate(-214,-70) scale(1,1)"><path fill="none" stroke="#000000" d="M 760 470 L 1007 470" stroke-miterlimit="10"></path></g><g transform="translate(-214,-70) scale(1,1)"><g><path fill="none" stroke="none"></path><text fill="#000000" stroke="none" font-family="Arial" font-size="13px" font-style="normal" font-weight="bold" text-decoration="none" x="852.5" y="411.5">Enrollment</text></g></g><g transform="translate(-214,-70) scale(1,1)"><g><path fill="none" stroke="none"></path><text fill="#000000" stroke="none" font-family="Arial" font-size="13px" font-style="normal" font-weight="normal" text-decoration="none" x="765" y="434.5">-course</text></g></g><g transform="translate(-214,-70) scale(1,1)"><g><path fill="none" stroke="none"></path><text fill="#000000" stroke="none" font-family="Arial" font-size="13px" font-style="normal" font-weight="normal" text-decoration="none" x="765" y="449.5">-student</text></g></g><g transform="translate(-214,-70) scale(1,1)"><g><path fill="none" stroke="none"></path><text fill="#000000" stroke="none" font-family="Arial" font-size="13px" font-style="normal" font-weight="normal" text-decoration="none" x="765" y="464.5">-grade</text></g></g><g transform="translate(-214,-70) scale(1,1)"><rect fill="#C0C0C0" stroke="none" x="255" y="391" width="247" height="255" opacity="0.2"></rect></g><g transform="translate(-214,-70) scale(1,1)"><rect fill="#ffffff" stroke="none" x="248" y="384" width="247" height="255"></rect></g><g transform="translate(-214,-70) scale(1,1)"><path fill="none" stroke="#000000" d="M 248 384 L 495 384 L 495 639 L 248 639 L 248 384 Z Z" stroke-miterlimit="10"></path></g><g transform="translate(-214,-70) scale(1,1)"><path fill="none" stroke="#000000" d="M 248 409 L 495 409" stroke-miterlimit="10"></path></g><g transform="translate(-214,-70) scale(1,1)"><path fill="none" stroke="#000000" d="M 248 447 L 495 447" stroke-miterlimit="10"></path></g><g transform="translate(-214,-70) scale(1,1)"><g><path fill="none" stroke="none"></path><text fill="#000000" stroke="none" font-family="Arial" font-size="13px" font-style="normal" font-weight="bold" text-decoration="none" x="351" y="403.5">Course</text></g></g><g transform="translate(-214,-70) scale(1,1)"><g><path fill="none" stroke="none"></path><text fill="#000000" stroke="none" font-family="Arial" font-size="13px" font-style="normal" font-weight="normal" text-decoration="none" x="253" y="426.5">-prerequisite</text></g></g><g transform="translate(-214,-70) scale(1,1)"><g><path fill="none" stroke="none"></path><text fill="#000000" stroke="none" font-family="Arial" font-size="13px" font-style="normal" font-weight="normal" text-decoration="none" x="253" y="441.5">-session_list</text></g></g><g transform="translate(-214,-70) scale(1,1)"><rect fill="#C0C0C0" stroke="none" x="231" y="727" width="295" height="223" opacity="0.2"></rect></g><g transform="translate(-214,-70) scale(1,1)"><rect fill="#ffffff" stroke="none" x="224" y="720" width="295" height="223"></rect></g><g transform="translate(-214,-70) scale(1,1)"><path fill="none" stroke="#000000" d="M 224 720 L 519 720 L 519 943 L 224 943 L 224 720 Z Z" stroke-miterlimit="10"></path></g><g transform="translate(-214,-70) scale(1,1)"><path fill="none" stroke="#000000" d="M 224 745 L 519 745" stroke-miterlimit="10"></path></g><g transform="translate(-214,-70) scale(1,1)"><path fill="none" stroke="#000000" d="M 224 783 L 519 783" stroke-miterlimit="10"></path></g><g transform="translate(-214,-70) scale(1,1)"><g><path fill="none" stroke="none"></path><text fill="#000000" stroke="none" font-family="Arial" font-size="13px" font-style="normal" font-weight="bold" text-decoration="none" x="348" y="739.5">Session</text></g></g><g transform="translate(-214,-70) scale(1,1)"><g><path fill="none" stroke="none"></path><text fill="#000000" stroke="none" font-family="Arial" font-size="13px" font-style="normal" font-weight="normal" text-decoration="none" x="229" y="762.5">-time</text></g></g><g transform="translate(-214,-70) scale(1,1)"><g><path fill="none" stroke="none"></path><text fill="#000000" stroke="none" font-family="Arial" font-size="13px" font-style="normal" font-weight="normal" text-decoration="none" x="229" y="777.5">-room</text></g></g><g transform="translate(-214,-70) scale(1,1)"><path fill="none" stroke="#000000" d="M 883 391 L 883 280" stroke-miterlimit="10"></path></g><g transform="translate(-214,-70) scale(1,1)"><path fill="#000000" stroke="none" d="M 887.209517756016 290.16267485762415 L 883 280 L 878.790482243984 290.16267485762415 L 883 302"></path></g><g transform="translate(-214,-70) scale(1,1)"><path fill="none" stroke="#000000" d="M 887.209517756016 290.16267485762415 L 883 280 L 878.790482243984 290.16267485762415 L 883 302 L 887.209517756016 290.16267485762415" stroke-miterlimit="10"></path></g><g transform="translate(-214,-70) scale(1,1)"><g><path fill="none" stroke="none"></path><text fill="#000000" stroke="none" font-family="Arial" font-size="13px" font-style="normal" font-weight="normal" text-decoration="none" x="891.5" y="375.5">1</text></g></g><g transform="translate(-214,-70) scale(1,1)"><g><path fill="none" stroke="none"></path><text fill="#000000" stroke="none" font-family="Arial" font-size="13px" font-style="normal" font-weight="normal" text-decoration="none" x="891.5" y="307.5">1</text></g></g><g transform="translate(-214,-70) scale(1,1)"><path fill="none" stroke="#000000" d="M 767 194 L 488 192" stroke-miterlimit="10"></path></g><g transform="translate(-214,-70) scale(1,1)"><path fill="#000000" stroke="none" d="M 498.1925887332458 187.86343924075683 L 488 192 L 498.13223877477475 196.2822584474727 L 509.9994347669697 192.1577020413403"></path></g><g transform="translate(-214,-70) scale(1,1)"><path fill="none" stroke="#000000" d="M 498.1925887332458 187.86343924075683 L 488 192 L 498.13223877477475 196.2822584474727 L 509.9994347669697 192.1577020413403 L 498.1925887332458 187.86343924075683" stroke-miterlimit="10"></path></g><g transform="translate(-214,-70) scale(1,1)"><g><path fill="none" stroke="none"></path><text fill="#000000" stroke="none" font-family="Arial" font-size="13px" font-style="normal" font-weight="normal" text-decoration="none" x="734.5" y="187.5">1..*</text></g></g><g transform="translate(-214,-70) scale(1,1)"><g><path fill="none" stroke="none"></path><text fill="#000000" stroke="none" font-family="Arial" font-size="13px" font-style="normal" font-weight="normal" text-decoration="none" x="505.5" y="185.5">1</text></g></g><g transform="translate(-214,-70) scale(1,1)"><path fill="none" stroke="#000000" d="M 371 383 L 371 304" stroke-miterlimit="10"></path></g><g transform="translate(-214,-70) scale(1,1)"><path fill="#000000" stroke="none" d="M 375.209517756016 314.16267485762415 L 371 304 L 366.790482243984 314.16267485762415 L 371 326"></path></g><g transform="translate(-214,-70) scale(1,1)"><path fill="none" stroke="#000000" d="M 375.209517756016 314.16267485762415 L 371 304 L 366.790482243984 314.16267485762415 L 371 326 L 375.209517756016 314.16267485762415" stroke-miterlimit="10"></path></g><g transform="translate(-214,-70) scale(1,1)"><g><path fill="none" stroke="none"></path><text fill="#000000" stroke="none" font-family="Arial" font-size="13px" font-style="normal" font-weight="normal" text-decoration="none" x="372.5" y="367.5">0..*</text></g></g><g transform="translate(-214,-70) scale(1,1)"><g><path fill="none" stroke="none"></path><text fill="#000000" stroke="none" font-family="Arial" font-size="13px" font-style="normal" font-weight="normal" text-decoration="none" x="379.5" y="331.5">1</text></g></g><g transform="translate(-214,-70) scale(1,1)"><path fill="none" stroke="#000000" d="M 496 511 L 759 511" stroke-miterlimit="10"></path></g><g transform="translate(-214,-70) scale(1,1)"><path fill="#000000" stroke="none" d="M 748.8373251423759 515.209517756016 L 759 511 L 748.8373251423758 506.790482243984 L 737 511"></path></g><g transform="translate(-214,-70) scale(1,1)"><path fill="none" stroke="#000000" d="M 748.8373251423759 515.209517756016 L 759 511 L 748.8373251423758 506.790482243984 L 737 511 L 748.8373251423759 515.209517756016" stroke-miterlimit="10"></path></g><g transform="translate(-214,-70) scale(1,1)"><g><path fill="none" stroke="none"></path><text fill="#000000" stroke="none" font-family="Arial" font-size="13px" font-style="normal" font-weight="normal" text-decoration="none" x="513" y="529.5">1</text></g></g><g transform="translate(-214,-70) scale(1,1)"><g><path fill="none" stroke="none"></path><text fill="#000000" stroke="none" font-family="Arial" font-size="13px" font-style="normal" font-weight="normal" text-decoration="none" x="733.5" y="529.5">1</text></g></g><g transform="translate(-214,-70) scale(1,1)"><path fill="none" stroke="#000000" d="M 371 719 L 371 640" stroke-miterlimit="10"></path></g><g transform="translate(-214,-70) scale(1,1)"><path fill="#000000" stroke="none" d="M 375.209517756016 650.1626748576241 L 371 640 L 366.790482243984 650.1626748576241 L 371 662"></path></g><g transform="translate(-214,-70) scale(1,1)"><path fill="none" stroke="#000000" d="M 375.209517756016 650.1626748576241 L 371 640 L 366.790482243984 650.1626748576241 L 371 662 L 375.209517756016 650.1626748576241" stroke-miterlimit="10"></path></g><g transform="translate(-214,-70) scale(1,1)"><g><path fill="none" stroke="none"></path><text fill="#000000" stroke="none" font-family="Arial" font-size="13px" font-style="normal" font-weight="normal" text-decoration="none" x="372.5" y="703.5">1..*</text></g></g><g transform="translate(-214,-70) scale(1,1)"><g><path fill="none" stroke="none"></path><text fill="#000000" stroke="none" font-family="Arial" font-size="13px" font-style="normal" font-weight="normal" text-decoration="none" x="379.5" y="667.5">1</text></g></g></g></svg>